<svg width="556" height="439" viewBox="0 0 556 439" fill="none" xmlns="http://www.w3.org/2000/svg">
<path d="M64.7459 439.289H29.3638L22.1917 402.447H71.9193L64.7459 439.289Z" fill="#FFC154"/>
<path d="M25.437 419.115L69.8472 413.085L71.9193 402.447H22.1917L25.437 419.115Z" fill="#FF9E55"/>
<path d="M46.7361 399.673C68.0497 370.091 47.0094 352.478 46.7361 352.252V352.246L46.7325 352.248L46.7288 352.246V352.252C46.4567 352.478 25.414 370.091 46.7288 399.673V399.681C46.7288 399.681 46.7312 399.679 46.7325 399.676L46.7361 399.681V399.673Z" fill="#FCA311"/>
<path d="M45.1511 403.333C45.4159 362.858 70.5238 359.948 91.4026 374.498L45.1511 403.333Z" fill="#75B75A"/>
<path d="M48.5872 404.391C48.5872 378.465 77.9231 369.736 92.9888 399.365L48.5872 404.391Z" fill="#FCA311"/>
<path d="M48.3223 403.333C48.0575 362.858 22.9495 359.948 2.0708 374.498L48.3223 403.333Z" fill="#75B75A"/>
<path d="M44.8863 404.391C44.8863 378.465 15.5504 369.736 0.484619 399.365L44.8863 404.391Z" fill="#FCA311"/>
<path d="M74.8672 400.958H18.2869V409.413H74.8672V400.958Z" fill="#FFC154"/>
<path d="M254.736 203.197L230.502 185.972V83.7068C230.502 78.6881 226.438 74.6202 221.425 74.6202H32.0031C26.9893 74.6202 22.9253 78.6881 22.9253 83.7068V248.627C22.9253 253.646 26.9893 257.714 32.0031 257.714H221.425C226.438 257.714 230.502 253.646 230.502 248.627V220.421L254.736 203.197Z" fill="white"/>
<path d="M66.4428 112.024C68.0147 105.391 63.9169 98.7381 57.2902 97.1647C50.6635 95.5913 44.0172 99.693 42.4453 106.326C40.8734 112.959 44.9711 119.612 51.5979 121.186C58.2246 122.759 64.8709 118.657 66.4428 112.024Z" fill="#FCA311"/>
<path d="M208.066 110.794H76.5322C74.7346 110.794 73.2783 112.253 73.2783 114.051C73.2783 115.851 74.7346 117.308 76.5322 117.308H208.066C209.863 117.308 211.32 115.851 211.32 114.051C211.32 112.252 209.863 110.794 208.066 110.794Z" fill="#D6E6FD"/>
<path d="M76.5322 107.537H136.391C138.188 107.537 139.645 106.078 139.645 104.28C139.645 102.481 138.187 101.023 136.391 101.023H76.5322C74.7346 101.023 73.2783 102.482 73.2783 104.28C73.2783 106.078 74.7346 107.537 76.5322 107.537Z" fill="#BDD3F4"/>
<path d="M186.657 146.538C186.657 153.355 192.179 158.881 198.989 158.881C205.799 158.881 211.321 153.355 211.321 146.538C211.321 139.721 205.799 134.194 198.989 134.194C192.178 134.194 186.657 139.721 186.657 146.538Z" fill="#FFC154"/>
<path d="M176.895 148.167H45.3611C43.5635 148.167 42.1072 149.626 42.1072 151.424C42.1072 153.223 43.5635 154.681 45.3611 154.681H176.895C178.692 154.681 180.149 153.222 180.149 151.424C180.15 149.625 178.692 148.167 176.895 148.167Z" fill="#D6E6FD"/>
<path d="M45.3611 144.91H105.22C107.017 144.91 108.473 143.452 108.473 141.653C108.473 139.853 107.016 138.396 105.22 138.396H45.3611C43.5635 138.396 42.1072 139.853 42.1072 141.653C42.1072 143.451 43.5647 144.91 45.3611 144.91Z" fill="#BDD3F4"/>
<path d="M54.4389 196.94C61.2495 196.94 66.7706 191.413 66.7706 184.596C66.7706 177.779 61.2495 172.252 54.4389 172.252C47.6283 172.252 42.1072 177.779 42.1072 184.596C42.1072 191.413 47.6283 196.94 54.4389 196.94Z" fill="#FCA311"/>
<path d="M208.066 186.225H76.5322C74.7346 186.225 73.2783 187.684 73.2783 189.482C73.2783 191.282 74.7346 192.739 76.5322 192.739H208.066C209.863 192.739 211.32 191.282 211.32 189.482C211.32 187.683 209.863 186.225 208.066 186.225Z" fill="#D6E6FD"/>
<path d="M76.5322 182.968H136.391C138.188 182.968 139.645 181.511 139.645 179.711C139.645 177.912 138.187 176.454 136.391 176.454H76.5322C74.7346 176.454 73.2783 177.912 73.2783 179.711C73.2783 181.509 74.7346 182.968 76.5322 182.968Z" fill="#BDD3F4"/>
<path d="M198.988 234.313C205.799 234.313 211.32 228.786 211.32 221.969C211.32 215.152 205.799 209.625 198.988 209.625C192.177 209.625 186.656 215.152 186.656 221.969C186.656 228.786 192.177 234.313 198.988 234.313Z" fill="#FFC154"/>
<path d="M176.895 223.598H45.3611C43.5635 223.598 42.1072 225.056 42.1072 226.855C42.1072 228.654 43.5635 230.112 45.3611 230.112H176.895C178.692 230.112 180.149 228.653 180.149 226.855C180.15 225.056 178.692 223.598 176.895 223.598Z" fill="#D6E6FD"/>
<path d="M45.3611 220.341H105.22C107.017 220.341 108.473 218.883 108.473 217.084C108.473 215.285 107.016 213.827 105.22 213.827H45.3611C43.5635 213.827 42.1072 215.286 42.1072 217.084C42.1072 218.882 43.5647 220.341 45.3611 220.341Z" fill="#BDD3F4"/>
<path d="M324.289 387.97L314.228 283.496C313.217 272.987 303.885 265.289 293.386 266.302C282.887 267.315 275.196 276.655 276.208 287.164L284.726 375.626L166.211 408.068C159.39 409.955 155.004 416.819 156.361 423.897C157.789 431.342 164.976 436.219 172.414 434.789L309.601 408.424L325.955 405.281L324.289 387.97Z" fill="#FFA67A"/>
<path d="M314.228 283.496C314.167 282.863 314.073 282.242 313.952 281.63L276.153 284.584C276.12 285.436 276.124 286.294 276.208 287.166L280.94 336.302L319.575 339.016L314.228 283.496Z" fill="#EF946C"/>
<path d="M330.223 325.547L268.447 331.225L263.907 281.729C262.562 267.068 273.345 254.092 287.991 252.746L296.727 251.942C311.374 250.596 324.337 261.389 325.682 276.05L330.223 325.547Z" fill="#385187"/>
<path d="M169.094 435.046C156.501 435.811 134.645 435.588 125.93 425.992C125.93 425.992 106.737 433.206 101.401 433.532C96.0641 433.858 93.8645 429.453 93.8645 429.453C93.8645 429.453 125.616 405.538 132.532 403.02C139.448 400.502 170.885 406.796 170.885 406.796L176.012 425.4C177.303 430.088 173.943 434.751 169.094 435.046Z" fill="#FFA67A"/>
<path d="M364.479 232.767C328.496 232.767 300.743 241.595 283.242 253.274L302.841 352.46L298.79 447.536C298.79 447.536 368.654 463.987 438.971 447.536L430.852 352.441L437.874 251.94C437.874 251.94 409.499 238.03 364.479 232.767Z" fill="#2C4477"/>
<path d="M398.752 249.674C398.752 265.312 380.553 277.989 358.103 277.989C335.652 277.989 317.453 265.312 317.453 249.674C317.453 234.037 335.652 235.386 358.103 235.386C380.552 235.386 398.752 234.035 398.752 249.674Z" fill="#FFB692"/>
<path d="M460.306 387.97L450.246 283.496C449.234 272.987 439.903 265.289 429.404 266.302C418.905 267.315 411.214 276.655 412.226 287.164L420.744 375.626L302.228 408.069C295.407 409.956 291.02 416.82 292.378 423.898C293.806 431.343 300.993 436.22 308.431 434.79L445.618 408.425L461.973 405.282L460.306 387.97Z" fill="#FFB692"/>
<path d="M451.593 297.478L413.472 300.095L416.782 334.472L455.576 338.832L451.593 297.478Z" fill="#D88D87"/>
<path d="M466.241 325.547L404.465 331.225L399.925 281.729C398.58 267.068 409.363 254.092 424.009 252.746L432.746 251.942C447.393 250.595 460.356 261.389 461.701 276.05L466.241 325.547Z" fill="#385188"/>
<path d="M305.111 435.046C292.519 435.811 270.663 435.588 261.947 425.992C261.947 425.992 242.754 433.206 237.419 433.532C232.082 433.858 229.882 429.453 229.882 429.453C229.882 429.453 261.634 405.538 268.55 403.02C275.466 400.502 306.903 406.796 306.903 406.796L312.03 425.4C313.322 430.088 309.961 434.751 305.111 435.046Z" fill="#FFB692"/>
<path d="M303.978 185.401C313.832 184.863 321.273 174.389 320.598 162.007C319.923 149.626 311.387 140.025 301.533 140.563C291.679 141.101 284.238 151.575 284.914 163.957C285.589 176.339 294.124 185.94 303.978 185.401Z" fill="#6D86AA"/>
<path d="M292.635 163.545C293.311 175.928 301.846 185.529 311.7 184.99C321.553 184.451 328.994 173.978 328.32 161.596C327.645 149.215 319.11 139.613 309.256 140.151C299.401 140.69 291.96 151.164 292.635 163.545Z" fill="white"/>
<path d="M301.905 115.515C276.002 140.766 310.37 169.173 310.37 169.173L308.752 114.761L301.905 115.515Z" fill="#323244"/>
<path d="M386.612 238.969C383.161 175.682 372.609 209.247 357.38 210.079C342.152 210.91 328.236 182.776 331.463 241.982C332.672 264.161 344.914 261.571 360.142 260.74C375.372 259.907 387.821 261.148 386.612 238.969Z" fill="#FFB692"/>
<path d="M331.032 223.462C331.783 189.441 344.08 210.804 357.381 210.079C372.126 209.273 382.488 177.782 386.263 233.235C363.123 242.231 344.355 234.281 331.032 223.462Z" fill="#D88D87"/>
<path d="M361.752 92.7193L337.215 94.0603C318.07 95.1059 303.259 111.643 304.304 130.807L307.069 181.534C308.528 208.295 331.597 228.997 358.333 227.537C385.069 226.077 405.751 202.985 404.292 176.223L401.694 128.561C400.556 107.711 382.583 91.5813 361.752 92.7193Z" fill="#FFB692"/>
<path d="M385.347 161.989C386 173.978 393.971 183.554 403.933 185.243C404.323 182.301 404.459 179.288 404.292 176.223L402.135 136.654C391.979 139.046 384.675 149.661 385.347 161.989Z" fill="#D88D87"/>
<path d="M401.518 126.476C399.342 106.646 381.882 91.619 361.751 92.7193L337.214 94.0603C329.01 94.5089 321.606 97.8073 315.901 102.933C341.99 136.138 378.594 133.011 401.518 126.476Z" fill="#D88D87"/>
<path d="M372.53 143.74L364.319 141.091C361.779 140.272 360.37 137.52 361.189 134.978C362.008 132.435 364.756 131.026 367.296 131.845L375.507 134.494C378.047 135.314 379.455 138.065 378.637 140.607C377.818 143.149 375.071 144.56 372.53 143.74Z" fill="#323244"/>
<path d="M333.921 143.335L326.372 147.514C324.036 148.806 321.069 147.952 319.778 145.614C318.487 143.276 319.34 140.306 321.676 139.012L329.226 134.834C331.562 133.541 334.529 134.396 335.821 136.734C337.112 139.073 336.257 142.043 333.921 143.335Z" fill="#323244"/>
<path d="M340.658 178.516C340.658 178.516 353.469 180.148 353.656 182.526C353.843 184.904 347.731 186.374 345.978 185.447C344.223 184.518 340.658 178.516 340.658 178.516Z" fill="#D88D87"/>
<path d="M335.384 155.75C335.546 158.705 333.283 161.231 330.33 161.393C327.377 161.555 324.854 159.29 324.692 156.334C324.53 153.379 326.793 150.852 329.746 150.691C332.7 150.529 335.224 152.794 335.384 155.75Z" fill="#34344F"/>
<path d="M373.826 153.65C373.987 156.605 371.723 159.132 368.772 159.294C365.819 159.455 363.295 157.19 363.134 154.235C362.972 151.279 365.235 148.753 368.188 148.591C371.14 148.429 373.664 150.694 373.826 153.65Z" fill="#34344F"/>
<path d="M349.391 150.384C348.832 153.491 348.155 156.551 347.422 159.589C346.691 162.628 345.904 165.646 345.07 168.65C344.234 171.654 343.379 174.651 342.437 177.631L342.25 178.188C342.233 178.213 342.212 178.37 342.24 178.115C342.226 177.908 342.208 177.881 342.187 177.825C342.149 177.745 342.144 177.772 342.17 177.806C342.257 177.964 342.536 178.238 342.781 178.48C343.308 178.97 343.881 179.491 344.475 179.982C345.646 181.001 346.853 182.014 347.988 183.175C346.415 182.762 344.948 182.138 343.515 181.414C342.809 181.03 342.097 180.652 341.41 180.152C341.056 179.892 340.729 179.656 340.336 179.193C340.241 179.075 340.129 178.934 340.018 178.674C339.964 178.526 339.906 178.408 339.901 178.101C339.913 177.746 339.936 177.812 339.945 177.743L340.097 177.174C340.961 174.15 341.911 171.142 342.879 168.143C343.851 165.144 344.87 162.158 345.944 159.193C347.015 156.226 348.145 153.282 349.391 150.384Z" fill="#34344F"/>
<path d="M342.387 193.055C348.792 191.051 357.671 187.802 365.817 183.193C371.174 180.161 377.196 186.654 375.114 193.314C372.898 200.401 368.19 207.432 358.421 209.776C350.414 211.696 344.918 210.325 341.166 207.809C335.855 204.245 336.679 194.841 342.387 193.055Z" fill="#34344F"/>
<path d="M358.421 209.775C368.191 207.432 372.899 200.4 375.114 193.313C375.426 192.314 375.537 191.324 375.515 190.365C371.764 189.301 366.981 189.356 360.903 191.661C351.515 195.222 347.785 202.779 346.536 210.074C346.534 210.088 346.535 210.102 346.531 210.116C349.7 210.88 353.598 210.931 358.421 209.775Z" fill="#FF9292"/>
<path d="M352.489 202.386C353.711 203.913 357.414 203.087 360.759 200.537C364.105 197.988 365.826 194.685 364.604 193.156C363.382 191.629 359.679 192.456 356.334 195.006C352.988 197.555 351.266 200.859 352.489 202.386Z" fill="#FFABAB"/>
<path d="M342.387 193.055C348.792 191.051 357.672 187.802 365.817 183.193C369.107 181.331 372.641 183.068 374.401 186.224C370.001 191.509 362.8 196.326 354 199.309C348.357 201.223 342.778 202.133 337.733 202.143C337.137 198.334 338.788 194.181 342.387 193.055Z" fill="white"/>
<path d="M385.386 122.93C263.45 152.967 275.638 91.5424 275.638 91.5424L282.238 100.973C282.238 100.973 276.988 72.2494 303.881 61.8218L307.44 79.8686C307.44 79.8686 349.664 58.2571 391.097 83.9779C432.53 109.699 411.274 171.119 411.274 171.119C411.274 171.119 393.436 171.925 385.386 122.93Z" fill="#323244"/>
<path d="M402.965 94.0567C399.772 90.3644 395.904 86.9845 391.228 84.063C362.146 104.887 318.14 125.467 281.835 96.1089C281.896 99.0839 282.238 100.973 282.238 100.973L275.638 91.5424C275.638 91.5424 274.973 94.8992 275.51 99.6577C316.028 136.008 370.573 119.703 402.965 94.0567Z" fill="#49496B"/>
<path d="M395.399 155.514C394.419 164.724 398.615 172.858 404.772 173.682C410.93 174.506 416.716 167.708 417.698 158.498C418.679 149.288 414.481 141.153 408.324 140.329C402.168 139.506 396.381 146.304 395.399 155.514Z" fill="#FFB692"/>
<path d="M401.893 156.08C400.953 155.954 400.028 156.108 399.15 156.478C399.162 156.325 399.167 156.175 399.182 156.021C399.831 149.936 403.653 145.445 407.722 145.989C411.79 146.534 414.563 151.908 413.914 157.993C413.416 162.671 411.039 166.396 408.119 167.626C408.585 161.732 405.859 156.61 401.893 156.08Z" fill="#D88D87"/>
<path d="M427.631 159.866C428.306 172.248 420.864 182.721 411.01 183.26C401.156 183.799 392.621 174.198 391.946 161.815C391.271 149.432 398.713 138.959 408.567 138.421C418.42 137.884 426.955 147.485 427.631 159.866Z" fill="white"/>
<path d="M435.349 159.446C436.025 171.828 428.584 182.301 418.729 182.839C408.875 183.378 400.339 173.777 399.665 161.394C398.99 149.013 406.431 138.538 416.285 138.001C426.139 137.462 434.675 147.063 435.349 159.446Z" fill="#6D86AA"/>
<path d="M426.428 159.933C426.766 166.124 423.046 171.361 418.118 171.63C413.191 171.899 408.924 167.099 408.586 160.908C408.248 154.717 411.969 149.48 416.896 149.211C421.824 148.94 426.092 153.741 426.428 159.933Z" fill="#FFAC52"/>
<path d="M409.9 143.379C415.587 103.602 392.34 79.5404 363.681 76.8183L372.442 75.7326C372.442 75.7326 425.195 75.5369 421.19 144.144L409.9 143.379Z" fill="#6D86AA"/>
<path d="M295.904 181.706C294.914 213.091 326.986 210.486 326.986 210.486" stroke="#14213D" stroke-width="2" stroke-miterlimit="10"/>
<path d="M331.824 214.041L326.577 214.198C324.589 214.257 322.93 212.691 322.87 210.702C322.811 208.712 324.375 207.051 326.362 206.992L331.609 206.835C333.597 206.775 335.256 208.341 335.316 210.33C335.375 212.319 333.812 213.981 331.824 214.041Z" fill="white"/>
<path d="M534.766 0H447.063C435.371 0 425.893 9.48786 425.893 21.1908V65.0849C425.893 76.2773 434.567 85.4199 445.551 86.1992V109.988L469.241 86.2758H534.766C546.457 86.2758 555.936 76.7891 555.936 65.0849V21.1908C555.935 9.48786 546.457 0 534.766 0Z" fill="#FCA311"/>
<path d="M460.727 35.8968C455.713 35.8968 451.648 39.966 451.648 44.9847C451.648 50.0033 455.713 54.0725 460.727 54.0725C465.741 54.0725 469.806 50.0046 469.806 44.9847C469.806 39.9647 465.741 35.8968 460.727 35.8968Z" fill="white"/>
<path d="M490.914 35.8968C485.9 35.8968 481.835 39.966 481.835 44.9847C481.835 50.0033 485.899 54.0725 490.914 54.0725C495.928 54.0725 499.993 50.0046 499.993 44.9847C499.993 39.9647 495.928 35.8968 490.914 35.8968Z" fill="white"/>
<path d="M521.1 35.8968C516.087 35.8968 512.021 39.966 512.021 44.9847C512.021 50.0033 516.087 54.0725 521.1 54.0725C526.114 54.0725 530.18 50.0046 530.18 44.9847C530.18 39.9647 526.116 35.8968 521.1 35.8968Z" fill="white"/>
<path d="M87.8694 430.073L261.462 430.05L225.211 307.871H51.7986L87.8694 430.073Z" fill="white"/>
<path d="M87.8831 438.709L341.745 438.709V430.029L87.8831 430.029V438.709Z" fill="#B2B2B2"/>
<path d="M87.8833 438.709H261.455V430.029H87.8833V438.709Z" fill="#E3E3E3"/>
<path d="M225.211 307.871H231.802L268.565 430.42L261.454 430.029L225.211 307.871Z" fill="#C8C8C8"/>
<path d="M138.793 379.765C141.633 388.496 149.989 393.6 157.458 391.166C164.926 388.732 168.678 379.681 165.839 370.949C162.998 362.219 154.641 357.114 147.174 359.548C139.704 361.983 135.954 371.033 138.793 379.765Z" fill="#B2B2B2"/>
</svg>
